HIERARCHY
ROOT Hips
{
	OFFSET 0.000000 0.000000 0.000000
	CHANNELS 6 Xposition Yposition Zposition Zrotation Yrotation Xrotation 
	JOINT LHipJoint
	{
		OFFSET 0.000000 0.000000 0.000000
		CHANNELS 3 Zrotation Yrotation Xrotation
		JOINT LeftUpLeg
		{
			OFFSET 1.363060 -1.794630 0.839290
			CHANNELS 3 Zrotation Yrotation Xrotation
			JOINT LeftLeg
			{
				OFFSET 2.448110 -6.726130 0.000000
				CHANNELS 3 Zrotation Yrotation Xrotation
				JOINT LeftFoot
				{
					OFFSET 2.562200 -7.039590 0.000000
					CHANNELS 3 Zrotation Yrotation Xrotation
					JOINT LeftToeBase
					{
						OFFSET 0.157640 -0.433110 2.322550
						CHANNELS 3 Zrotation Yrotation Xrotation
						End Site
						{
							OFFSET 0.000000 0.000000 0.000000
						}
					}
				}
			}
		}
	}
	JOINT RHipJoint
	{
		OFFSET 0.000000 0.000000 0.000000
		CHANNELS 3 Zrotation Yrotation Xrotation
		JOINT RightUpLeg
		{
			OFFSET -1.305520 -1.794630 0.839290
			CHANNELS 3 Zrotation Yrotation Xrotation
			JOINT RightLeg
			{
				OFFSET -2.542530 -6.985550 0.000000
				CHANNELS 3 Zrotation Yrotation Xrotation
				JOINT RightFoot
				{
					OFFSET -2.568260 -7.056230 0.000000
					CHANNELS 3 Zrotation Yrotation Xrotation
					JOINT RightToeBase
					{
						OFFSET -0.164730 -0.452590 2.363150
						CHANNELS 3 Zrotation Yrotation Xrotation
						End Site
						{
							OFFSET 0.000000 0.000000 0.000000
						}
					}
				}
			}
		}
	}
}
MOTION
Frames: 22
Frame Time: 0.008333
3.529231 17.244763 1.051725 -175.155431 -76.218514 -173.411557 -11.734177 2.879611 0.450737 -4.468495 22.429199 -15.171785 -2.690571 -0.857860 -4.489709 0.647617 4.776377 3.971564 1.031800 0.000000 -36.363800 9.302451 -0.885427 3.186490 2.627631 1.169976 -12.334228 2.684752 1.997496 -1.878253 0.260190 -2.201557 2.305760 -1.398300 -0.000000 -44.417000
3.525358 17.242575 1.048760 -175.549735 -76.124786 -173.118292 -11.751459 2.880139 0.419242 -4.479665 22.503977 -15.055045 -2.694713 -0.855128 -4.381135 0.652148 4.827290 3.879015 1.032200 0.000001 -36.349800 9.293218 -0.899608 3.191248 2.538035 1.217496 -12.250105 2.671365 1.983556 -1.825438 0.262767 -2.143155 2.231398 -1.378900 0.000000 -44.515600
3.522084 17.240153 1.045241 -175.932353 -76.062817 -172.852639 -11.766639 2.878679 0.386991 -4.478309 22.558997 -14.916551 -2.696392 -0.852369 -4.270836 0.656928 4.882390 3.785412 1.033200 0.000000 -36.333700 9.286421 -0.914357 3.188981 2.451045 1.248915 -12.145413 2.655803 1.966735 -1.761097 0.264354 -2.090451 2.141003 -1.360300 0.000000 -44.610100
3.519247 17.237573 1.041351 -176.286279 -76.031587 -172.625928 -11.779218 2.875786 0.357182 -4.465540 22.594466 -14.768308 -2.695868 -0.849830 -4.159314 0.661873 4.939671 3.691311 1.034500 -0.000000 -36.317900 9.281591 -0.929968 3.183291 2.371255 1.268048 -12.027385 2.639153 1.948479 -1.690914 0.264575 -2.047587 2.040041 -1.343500 -0.000000 -44.694300
3.516849 17.234898 1.037093 -176.635597 -76.025705 -172.418300 -11.790646 2.871904 0.325396 -4.443093 22.616927 -14.594989 -2.693286 -0.847359 -4.056917 0.666828 4.999098 3.603145 1.036500 0.000000 -36.297600 9.279019 -0.945148 3.169940 2.292567 1.269087 -11.887013 2.621240 1.928116 -1.617071 0.264180 -2.003991 1.932167 -1.325701 0.000000 -44.774800
3.514391 17.232312 1.032675 -176.947692 -76.041246 -172.248750 -11.800151 2.867832 0.297635 -4.413110 22.628129 -14.421244 -2.689364 -0.845472 -3.960659 0.671758 5.058278 3.519668 1.038800 -0.000000 -36.278500 9.277480 -0.961237 3.157054 2.223133 1.263497 -11.740455 2.603811 1.908173 -1.547725 0.262736 -1.968475 1.825075 -1.309700 0.000000 -44.841300
3.511642 17.229890 1.028202 -177.220910 -76.071203 -172.114453 -11.808223 2.864018 0.274158 -4.378793 22.634627 -14.252202 -2.684796 -0.844458 -3.874076 0.676520 5.115987 3.443250 1.041500 0.000000 -36.260900 9.276406 -0.978499 3.147059 2.162796 1.255584 -11.591897 2.587551 1.889528 -1.488457 0.260316 -1.939473 1.724625 -1.295100 -0.000000 -44.894199
3.508520 17.227648 1.023670 -177.472301 -76.107819 -171.999922 -11.815894 2.860497 0.251881 -4.342228 22.643865 -14.080222 -2.680018 -0.844466 -3.804424 0.680954 5.172182 3.377616 1.044800 0.000000 -36.242700 9.275751 -0.996309 3.138354 2.107730 1.243897 -11.439083 2.572592 1.871959 -1.441847 0.257614 -1.908507 1.633637 -1.279700 0.000000 -44.938900
3.504795 17.225661 1.019109 -177.700197 -76.144238 -171.902694 -11.823475 2.857479 0.231573 -4.305723 22.658529 -13.908168 -2.675154 -0.846013 -3.756929 0.685387 5.230191 3.325226 1.049600 0.000000 -36.224800 9.275081 -1.015023 3.133247 2.057865 1.232438 -11.287479 2.559531 1.856057 -1.411698 0.254864 -1.873210 1.556342 -1.263000 0.000000 -44.976300
3.500007 17.223968 1.014590 -177.885171 -76.175356 -171.831643 -11.830801 2.855217 0.216008 -4.272548 22.688984 -13.756719 -2.672036 -0.849504 -3.723384 0.688888 5.281145 3.281861 1.054200 -0.000000 -36.212300 9.273294 -1.036528 3.138501 2.017567 1.230326 -11.149408 2.549470 1.843529 -1.403199 0.251700 -1.837732 1.496194 -1.246400 0.000001 -45.004000
3.494154 17.222545 1.010160 -178.029645 -76.195946 -171.784920 -11.838157 2.853452 0.204105 -4.243729 22.742697 -13.627751 -2.671391 -0.855002 -3.702816 0.691021 5.321786 3.247023 1.057899 0.000000 -36.205800 9.270205 -1.061130 3.154882 1.986486 1.238731 -11.027087 2.542669 1.834348 -1.416739 0.248633 -1.798341 1.454565 -1.228900 0.000001 -45.024400
3.487140 17.221342 1.005672 -178.154061 -76.201636 -171.742846 -11.846269 2.851808 0.194086 -4.219396 22.810839 -13.504313 -2.671593 -0.863028 -3.708601 0.693230 5.366458 3.225533 1.063800 -0.000000 -36.202200 9.266234 -1.087666 3.178339 1.959303 1.252527 -10.917342 2.538751 1.827465 -1.450033 0.246384 -1.745435 1.429393 -1.208101 0.000000 -45.045800
3.479002 17.220303 1.001271 -178.238695 -76.191049 -171.722964 -11.854563 2.850008 0.187048 -4.200259 22.907742 -13.407378 -2.674941 -0.873122 -3.723027 0.693734 5.398126 3.209016 1.068000 0.000000 -36.207500 9.260666 -1.117598 3.213690 1.941372 1.277745 -10.828451 2.538417 1.823873 -1.503390 0.244719 -1.684126 1.420813 -1.185500 -0.000000 -45.065100
3.469730 17.219396 0.996888 -178.290878 -76.163210 -171.718086 -11.863293 2.847786 0.182354 -4.185032 23.027509 -13.329271 -2.680515 -0.885326 -3.749263 0.693273 5.423590 3.197872 1.071800 0.000000 -36.219901 9.253712 -1.150361 3.258434 1.930876 1.310979 -10.758729 2.541423 1.822841 -1.572874 0.244239 -1.609962 1.426147 -1.160100 0.000000 -45.085199
3.459562 17.218515 0.992557 -178.308491 -76.118566 -171.733269 -11.872317 2.844827 0.178927 -4.172153 23.173271 -13.271540 -2.688750 -0.899019 -3.779229 0.691294 5.437234 3.187886 1.073800 -0.000000 -36.240600 9.245429 -1.185682 3.311593 1.928441 1.351447 -10.707224 2.547602 1.824000 -1.654316 0.245108 -1.523127 1.442173 -1.132000 0.000000 -45.106400
3.448593 17.217657 0.988184 -178.302977 -76.058623 -171.756939 -11.881574 2.840678 0.177413 -4.161153 23.329052 -13.226123 -2.697727 -0.914322 -3.818987 0.689406 5.453023 3.180795 1.076500 -0.000000 -36.267100 9.236073 -1.222274 3.369947 1.931967 1.395270 -10.673763 2.556494 1.826639 -1.743488 0.247460 -1.421858 1.465371 -1.100900 -0.000001 -45.130400
3.437012 17.216766 0.983729 -178.276884 -75.985696 -171.787326 -11.890848 2.835069 0.177741 -4.151260 23.489930 -13.193502 -2.707095 -0.930752 -3.863822 0.687829 5.471757 3.173722 1.080000 0.000000 -36.299000 9.225718 -1.259375 3.431927 1.941205 1.441537 -10.658119 2.567712 1.830371 -1.835943 0.251507 -1.307965 1.492389 -1.067300 -0.000000 -45.156100
3.425180 17.215814 0.979305 -178.226911 -75.902496 -171.833233 -11.899916 2.827896 0.178205 -4.138890 23.657336 -13.171825 -2.716933 -0.947271 -3.904672 0.686114 5.488121 3.162527 1.082600 0.000000 -36.335800 9.214676 -1.296204 3.495071 1.956979 1.489016 -10.655272 2.580725 1.834501 -1.925178 0.257183 -1.184176 1.518811 -1.032101 -0.000000 -45.181300
3.413331 17.214795 0.974829 -178.160605 -75.811730 -171.887648 -11.908567 2.818737 0.178183 -4.123794 23.822969 -13.158573 -2.726435 -0.963378 -3.940171 0.684891 5.506551 3.146527 1.085100 0.000001 -36.375300 9.203195 -1.331321 3.556775 1.977688 1.537037 -10.664605 2.594847 1.838440 -2.006463 0.264202 -1.053367 1.541134 -0.996000 0.000000 -45.205100
3.401480 17.213707 0.970304 -178.078146 -75.716449 -171.949142 -11.916637 2.807495 0.177198 -4.104602 23.979210 -13.150270 -2.734795 -0.978671 -3.969311 0.684731 5.531180 3.125334 1.088100 0.000000 -36.415100 9.191572 -1.363796 3.614621 2.002733 1.585103 -10.683682 2.609486 1.841673 -2.075199 0.272446 -0.918840 1.555846 -0.959800 0.000000 -45.225200
3.390062 17.212576 0.965746 -177.985578 -75.619054 -172.014942 -11.923732 2.793715 0.174252 -4.081261 24.121448 -13.146675 -2.741584 -0.992512 -3.988884 0.685944 5.563477 3.097807 1.091700 -0.000001 -36.453100 9.180091 -1.392294 3.666641 2.031260 1.634176 -10.711795 2.623936 1.843697 -2.127678 0.281243 -0.785609 1.561122 -0.924800 0.000000 -45.239400
3.379138 17.211418 0.961145 -177.884011 -75.522628 -172.084295 -11.929687 2.777108 0.167801 -4.052572 24.247234 -13.144365 -2.746530 -1.004460 -3.997588 0.688591 5.603406 3.063525 1.095800 -0.000001 -36.488800 9.169145 -1.415918 3.710682 2.062213 1.684605 -10.746084 2.637530 1.843926 -2.159655 0.290259 -0.657045 1.553200 -0.891700 0.000000 -45.247799
